<svg xmlns="http://www.w3.org/2000/svg" width="24" height="24" fill="currentColor" stroke="current">
  <mask id="a" width="24" height="24" x="0" y="0" maskUnits="userSpaceOnUse" style="mask-type:alpha">
    <path fill="currentColor" d="M0 0h24v24H0z"/>
  </mask>
  <g mask="url(#a)">
    <path fill="currentColor" d="M12 19.875c-.283 0-.558-.063-.825-.188a2.076 2.076 0 0 1-.7-.537L2.825 10c-.25-.3-.4-.65-.45-1.05-.05-.4.017-.775.2-1.125L4.45 4.1c.183-.333.43-.6.737-.8.309-.2.655-.3 1.038-.3h11.55c.383 0 .73.1 1.038.3.308.2.554.467.737.8l1.875 3.725c.183.35.25.725.2 1.125-.05.4-.2.75-.45 1.05l-7.65 9.15c-.2.233-.433.413-.7.538a1.923 1.923 0 0 1-.825.187ZM9.625 8h4.75l-1.5-3h-1.75l-1.5 3ZM11 16.675V10H5.45L11 16.675Zm2 0L18.55 10H13v6.675ZM16.6 8h2.65l-1.5-3H15.1l1.5 3ZM4.75 8H7.4l1.5-3H6.25l-1.5 3Z"/>
  </g>
</svg>
