<svg xmlns="http://www.w3.org/2000/svg" width="32" height="32" fill="none"><path fill="#EEFBF5" d="M.388 1.941C0 2.701 0 3.698 0 5.69V26.31c0 1.991 0 2.987.388 3.748.34.669.884 1.213 1.553 1.553C2.701 32 3.698 32 5.69 32h11.316V19.199l-4.56.001v-5.689h4.56V10.24c0-4.327 3.01-6.683 7.134-6.683a42.33 42.33 0 0 1 4.163.196v4.523h-2.84c-2.248 0-2.376.924-2.376 2.392v2.844h5.358l-.697 5.683-4.661.002V32h3.225c1.991 0 2.987 0 3.748-.387a3.555 3.555 0 0 0 1.553-1.554c.388-.76.388-1.757.388-3.748V5.69c0-1.991 0-2.987-.387-3.748A3.555 3.555 0 0 0 30.059.388C29.299 0 28.302 0 26.31 0H5.69C3.698 0 2.702 0 1.94.388A3.556 3.556 0 0 0 .388 1.94Z"/></svg>