<svg xmlns="http://www.w3.org/2000/svg" width="32" height="32" fill="none"><g fill="#EEFBF5"><path d="M21.333 16a5.333 5.333 0 1 1-10.667 0 5.333 5.333 0 0 1 10.667 0Z"/><path fill-rule="evenodd" d="M.388 1.941C0 2.702 0 3.697 0 5.69V26.31c0 1.991 0 2.987.388 3.748.34.669.884 1.212 1.553 1.553C2.701 32 3.697 32 5.69 32H26.31c1.991 0 2.987 0 3.748-.388a3.553 3.553 0 0 0 1.553-1.553C32 29.298 32 28.302 32 26.31V5.69c0-1.992 0-2.987-.388-3.748A3.553 3.553 0 0 0 30.06.388C29.299 0 28.302 0 26.31 0H5.69C3.697 0 2.702 0 1.94.388 1.272.728.728 1.272.388 1.94ZM16 24.89c4.91 0 8.889-3.98 8.889-8.889 0-4.91-3.98-8.889-8.889-8.889A8.889 8.889 0 0 0 7.111 16c0 4.91 3.98 8.889 8.889 8.889ZM26.667 7.11a1.778 1.778 0 1 0 0-3.556 1.778 1.778 0 0 0 0 3.556Z" clip-rule="evenodd"/></g></svg>