<svg xmlns="http://www.w3.org/2000/svg" width="25" height="24" fill="none"><mask id="a" width="25" height="24" x="0" y="0" maskUnits="userSpaceOnUse" style="mask-type:alpha"><path fill="#D9D9D9" d="M.5 0h24v24H.5z"/></mask><g mask="url(#a)"><path fill="#EEFBF5" d="M11 20h3a.48.48 0 0 0 .35-.15.48.48 0 0 0 0-.7A.48.48 0 0 0 14 19h-3a.48.48 0 0 0-.35.15.48.48 0 0 0 0 .7c.1.1.217.15.35.15Zm-3.5 3c-.55 0-1.02-.196-1.412-.587A1.926 1.926 0 0 1 5.5 21V3c0-.55.196-1.02.588-1.413A1.926 1.926 0 0 1 7.5 1h10c.55 0 1.02.196 1.413.587.391.392.587.863.587 1.413v18c0 .55-.196 1.02-.587 1.413A1.926 1.926 0 0 1 17.5 23h-10Zm0-5v3h10v-3h-10Zm0-2h10V6h-10v10Zm0-12h10V3h-10v1Z"/></g></svg>