<svg xmlns="http://www.w3.org/2000/svg" width="24" height="24" fill="current" stroke="current"><mask id="a" width="24" height="24" x="0" y="0" maskUnits="userSpaceOnUse" style="mask-type:alpha"><path fill="currentColor" d="M0 0h24v24H0z"/></mask><g mask="url(#a)"><path fill="currentColor" d="M12 22a9.738 9.738 0 0 1-3.9-.788 10.099 10.099 0 0 1-3.175-2.137c-.9-.9-1.612-1.958-2.137-3.175A9.738 9.738 0 0 1 2 12c0-1.383.263-2.683.788-3.9a10.099 10.099 0 0 1 2.137-3.175c.9-.9 1.958-1.612 3.175-2.137A9.738 9.738 0 0 1 12 2c1.383 0 2.683.263 3.9.788a10.098 10.098 0 0 1 3.175 2.137c.9.9 1.613 1.958 2.137 3.175A9.738 9.738 0 0 1 22 12a9.738 9.738 0 0 1-.788 3.9 10.098 10.098 0 0 1-2.137 3.175c-.9.9-1.958 1.613-3.175 2.137A9.738 9.738 0 0 1 12 22Zm0-2c2.233 0 4.125-.775 5.675-2.325C19.225 16.125 20 14.233 20 12c0-2.233-.775-4.125-2.325-5.675C16.125 4.775 14.233 4 12 4c-2.233 0-4.125.775-5.675 2.325C4.775 7.875 4 9.767 4 12c0 2.233.775 4.125 2.325 5.675C7.875 19.225 9.767 20 12 20Zm0-2c-1.667 0-3.083-.583-4.25-1.75C6.583 15.083 6 13.667 6 12c0-1.667.583-3.083 1.75-4.25C8.917 6.583 10.333 6 12 6c1.667 0 3.083.583 4.25 1.75C17.417 8.917 18 10.333 18 12c0 1.667-.583 3.083-1.75 4.25C15.083 17.417 13.667 18 12 18Zm0-2c1.1 0 2.042-.392 2.825-1.175C15.608 14.042 16 13.1 16 12s-.392-2.042-1.175-2.825C14.042 8.392 13.1 8 12 8s-2.042.392-2.825 1.175C8.392 9.958 8 10.9 8 12s.392 2.042 1.175 2.825C9.958 15.608 10.9 16 12 16Zm0-2c-.55 0-1.02-.196-1.412-.588A1.926 1.926 0 0 1 10 12c0-.55.196-1.02.588-1.412A1.926 1.926 0 0 1 12 10c.55 0 1.02.196 1.412.588.392.391.588.862.588 1.412 0 .55-.196 1.02-.588 1.412A1.926 1.926 0 0 1 12 14Z"/></g></svg>