<svg xmlns="http://www.w3.org/2000/svg" width="17" height="17" fill="none"><path fill="#B0EACF" d="m1 10 8-7c1.2 0 4.5 2.667 6 4L1 10Z"/><path fill="#115441" d="M.5 16.5v-6L15 7l.5 2.5v3L15 15 .5 16.5Z"/><path fill="#D6F5E5" fill-rule="evenodd" d="M11.821 10.358c1.038.519 1.888.686 2.579.532.711-.158 1.17-.636 1.458-1.211l-.716-.358c-.212.425-.503.697-.916.789-.434.096-1.085.013-2.047-.468-.566-.283-1.082-.355-1.551-.268-.463.085-.84.317-1.144.574-.282.239-.52.515-.711.736l-.037.043a5.449 5.449 0 0 1-.264.291.703.703 0 0 1-.15.124c-.334.167-.668.098-1.151-.091l-.217-.088a8.947 8.947 0 0 0-.55-.21 2.604 2.604 0 0 0-.918-.153c-.697.025-1.267.424-1.743.756l-.117.082c-.535.37-1.012.662-1.626.662-.696 0-1.127-.293-1.217-.383l-.566.566c.244.243.88.617 1.783.617.887 0 1.547-.436 2.08-.805l.064-.044c.537-.37.918-.635 1.37-.651.2-.007.408.035.638.112.159.053.307.113.466.179l.261.105c.5.195 1.133.395 1.8.062.138-.07.258-.174.357-.272.101-.101.205-.22.305-.336l.028-.032c.199-.23.4-.462.632-.659.24-.202.492-.347.772-.398.274-.051.614-.02 1.048.197ZM8.001 14.9c.972 0 1.648-.62 2.12-1.128.11-.117.202-.222.287-.318.117-.134.22-.25.328-.356.187-.184.26-.197.264-.198.362 0 .64.174 1.028.433l.028.018c.359.24.822.549 1.444.549.6 0 1.051-.203 1.41-.442.175-.117.33-.243.462-.352l.015-.013a4.36 4.36 0 0 1 .335-.26l-.444-.666c-.135.09-.268.2-.389.3l-.026.021c-.133.11-.26.213-.397.304a1.666 1.666 0 0 1-.966.308c-.361 0-.64-.174-1.028-.433l-.027-.018c-.359-.24-.823-.549-1.445-.549-.354 0-.636.241-.825.427-.122.12-.262.278-.4.433-.082.093-.164.186-.24.268-.456.491-.926.872-1.535.872-.334 0-.53-.145-.867-.393l-.04-.03c-.36-.265-.822-.577-1.593-.577-.295 0-.591.148-.83.29-.21.126-.437.285-.656.439l-.133.093c-.268.188-.526.361-.773.488-.25.13-.451.19-.608.19-.663 0-.992-.118-1.183-.245-.182-.121-.282-.272-.435-.504l-.049-.073-.666.444.05.075c.144.22.332.507.656.723.372.248.877.38 1.627.38.344 0 .68-.127.975-.279.299-.154.596-.356.864-.543l.143-.1c.22-.155.415-.292.596-.4.234-.139.364-.178.422-.178.512 0 .801.188 1.12.422l.07.053c.308.23.705.525 1.31.525Z" clip-rule="evenodd"/><path stroke="#126A51" stroke-linejoin="round" stroke-width=".8" d="M.5 10.5v6L15 15c.898-3.192.89-4.944 0-8M.5 10.5 15 7M.5 10.5 9 3c2.578 1.014 3.887 1.875 6 4"/><path stroke="#A02525" stroke-linecap="round" stroke-linejoin="round" stroke-width=".6" d="M11.5 3.5C11.333 3 10 1.8 8 1"/><circle cx="10" cy="4" r="1.7" fill="#FF7070" stroke="#D84F4F" stroke-width=".6"/><path stroke="#FFDBDB" stroke-linecap="round" stroke-linejoin="round" stroke-width=".3" d="M10 5c.5 0 1-.5 1-1"/></svg>