<svg xmlns="http://www.w3.org/2000/svg" width="25" height="24" fill="none"><mask id="a" width="25" height="24" x="0" y="0" maskUnits="userSpaceOnUse" style="mask-type:alpha"><path fill="#D9D9D9" d="M.5 0h24v24H.5z"/></mask><g mask="url(#a)"><path fill="#EEFBF5" d="M4.5 20c-.55 0-1.02-.196-1.413-.587A1.926 1.926 0 0 1 2.5 18V6c0-.55.196-1.02.587-1.412A1.926 1.926 0 0 1 4.5 4h16c.55 0 1.02.196 1.413.588.391.391.587.862.587 1.412v12c0 .55-.196 1.02-.587 1.413A1.926 1.926 0 0 1 20.5 20h-16Zm16-12-7.475 4.675a1.04 1.04 0 0 1-.525.15 1.04 1.04 0 0 1-.525-.15L4.5 8v10h16V8Zm-8 3 8-5h-16l8 5Zm-8-2.75V6.775 6.8v-.013V8.25Z"/></g></svg>