<svg xmlns="http://www.w3.org/2000/svg" width="32" height="32" fill="none"><path fill="#EEFBF5" fill-rule="evenodd" d="M.388 1.941C0 2.701 0 3.698 0 5.69V26.31c0 1.991 0 2.987.388 3.748.34.669.884 1.213 1.553 1.553C2.701 32 3.698 32 5.69 32H26.31c1.991 0 2.987 0 3.748-.387a3.555 3.555 0 0 0 1.553-1.554c.388-.76.388-1.757.388-3.748V5.69c0-1.991 0-2.987-.387-3.748A3.555 3.555 0 0 0 30.059.388C29.299 0 28.302 0 26.31 0H5.69C3.698 0 2.702 0 1.94.388A3.556 3.556 0 0 0 .388 1.94Zm20.401 9.718c.655-.142 1.767-.632 2.322-.992-.214.734-1.057 1.66-1.65 2.05a5.36 5.36 0 0 0 1.65-.495 6.175 6.175 0 0 1-1.434 1.626l.006.256.003.031a.158.158 0 0 1 .001.052 27.346 27.346 0 0 1 .002.368c0 4.152-3.003 8.556-8.287 8.556-1.622 0-3.242-.665-4.513-1.556h.685c2.013 0 2.695-.313 3.678-1.156-1.257-.025-2.575-.726-2.94-1.975.174.036.828.129 1.013.129.263 0 .8-.017 1.067-.19-1.314-.288-2.792-1.324-2.792-2.847v-.04c.4.361.838.48 1.25.48.257 0 .503-.045.726-.108-1.212-.664-1.99-1.734-1.99-2.823 0-.577.06-1.192.202-1.58 1.302 1.745 3.117 3.11 5.5 3.11-.005-.069-.002-.18 0-.275v-.114c0-1.932 1.434-3.5 3.2-3.5.878 0 1.67.387 2.248 1.01a.413.413 0 0 0 .025-.008l.028-.009Z" clip-rule="evenodd"/></svg>