<svg width="18" height="18" viewBox="0 0 18 18" fill="none" xmlns="http://www.w3.org/2000/svg">
<rect x="0.1" y="0.1" width="17.8" height="17.8" rx="1.9" fill="#EEFBF5" stroke="#B0EACF" stroke-width="0.2"/>
<path d="M2 9.99994L10 2.99994C11.2 2.99994 14.5 5.66661 16 6.99994L2 9.99994Z" fill="#B0EACF"/>
<path d="M1.5 16.4999V10.4999L16 6.99994L16.5 9.49994V12.4999L16 14.9999L1.5 16.4999Z" fill="#115441"/>
<path fill-rule="evenodd" clip-rule="evenodd" d="M12.8214 10.3578C13.8593 10.8768 14.7087 11.0441 15.3996 10.8905C16.1114 10.7323 16.5707 10.2537 16.8581 9.67894L16.1425 9.32117C15.9299 9.74636 15.6392 10.0178 15.226 10.1096C14.7919 10.2061 14.1413 10.1233 13.1792 9.64228C12.6131 9.35926 12.0968 9.28727 11.6279 9.37377C11.1653 9.45912 10.7886 9.69143 10.4844 9.94833C10.2021 10.1868 9.9636 10.4632 9.77271 10.6844L9.73577 10.7272C9.63349 10.8456 9.54885 10.9419 9.47219 11.0181C9.39266 11.0971 9.34471 11.1306 9.32139 11.1423C8.98843 11.3088 8.65405 11.2398 8.17058 11.0508C8.1031 11.0244 8.03012 10.9946 7.95375 10.9634C7.77984 10.8923 7.58837 10.8141 7.40423 10.7529C7.12802 10.661 6.81887 10.5884 6.48601 10.6003C5.78879 10.6252 5.21851 11.0236 4.74275 11.356L4.74268 11.356C4.70303 11.3837 4.66404 11.411 4.62568 11.4375C4.09071 11.8075 3.61397 12.1001 3.0003 12.1001C2.30418 12.1001 1.87325 11.8074 1.78314 11.7173L1.21746 12.283C1.46069 12.5262 2.09642 12.9001 3.0003 12.9001C3.88664 12.9001 4.5471 12.4645 5.08073 12.0955L5.1444 12.0514C5.6805 11.6802 6.06208 11.416 6.51459 11.3998C6.71457 11.3926 6.92184 11.4355 7.15179 11.512C7.31074 11.5649 7.45863 11.6254 7.61848 11.6908L7.61848 11.6908L7.61849 11.6908C7.70116 11.7246 7.78703 11.7598 7.87928 11.7958C8.37938 11.9914 9.01217 12.1914 9.67921 11.8578C9.81736 11.7887 9.93738 11.6836 10.036 11.5856C10.1375 11.4848 10.2412 11.3659 10.341 11.2504L10.3692 11.2178C10.5675 10.9881 10.7682 10.7558 11.0006 10.5595C11.2406 10.3568 11.4929 10.2122 11.7731 10.1605C12.047 10.11 12.3875 10.1408 12.8214 10.3578ZM9.0003 14.9001C9.973 14.9001 10.6494 14.2807 11.1213 13.7721C11.2301 13.6549 11.3228 13.5498 11.4075 13.4538C11.5254 13.3202 11.6276 13.2043 11.7359 13.0979C11.9229 12.9142 11.9968 12.9007 12.0002 12.9001C12.0003 12.9001 12.0003 12.9001 12.0003 12.9001C12.3621 12.9001 12.6405 13.0743 13.0284 13.3329L13.0561 13.3513C13.4145 13.5905 13.8782 13.9 14.5003 13.9C15.0999 13.9 15.5511 13.6969 15.9097 13.4579C16.0847 13.3412 16.2394 13.2147 16.3718 13.1057L16.3867 13.0934L16.3867 13.0934C16.518 12.9852 16.6215 12.9 16.7222 12.8329L16.2784 12.1672C16.1428 12.2577 16.0098 12.3673 15.8894 12.4666L15.8632 12.4882C15.73 12.5979 15.6034 12.7006 15.4659 12.7922C15.1995 12.9698 14.9007 13.1 14.5003 13.1C14.1386 13.1 13.8601 12.9258 13.4722 12.6672L13.4445 12.6487C13.0861 12.4096 12.6224 12.1001 12.0003 12.1001C11.646 12.1001 11.3645 12.3413 11.1753 12.5272C11.053 12.6473 10.913 12.8052 10.7755 12.9604L10.7755 12.9604C10.6929 13.0535 10.6113 13.1456 10.5349 13.228C10.0788 13.7194 9.60874 14.1001 9.0003 14.1001C8.66616 14.1001 8.46921 13.9549 8.13266 13.7069L8.09338 13.6779C7.73213 13.412 7.27111 13.1001 6.50031 13.1C6.20494 13.1 5.90874 13.2482 5.66928 13.3907C5.45947 13.5156 5.23293 13.6749 5.01396 13.8289C4.96926 13.8603 4.92487 13.8915 4.88101 13.9222C4.61286 14.1096 4.35485 14.283 4.10825 14.4101C3.85769 14.5392 3.65673 14.6001 3.5003 14.6001C2.83664 14.6001 2.50823 14.4822 2.31668 14.3546C2.13492 14.2336 2.03522 14.0831 1.88166 13.8513L1.83312 13.7782L1.16748 14.2219C1.18339 14.2458 1.19977 14.2708 1.21676 14.2968C1.36062 14.5168 1.54869 14.8043 1.87326 15.0205C2.24483 15.2679 2.74975 15.4001 3.5003 15.4001C3.84387 15.4001 4.17952 15.2734 4.47473 15.1212C4.77389 14.9671 5.07079 14.7655 5.33927 14.5779C5.38806 14.5438 5.43573 14.5103 5.48236 14.4775L5.48288 14.4772C5.70158 14.3235 5.89731 14.1859 6.07845 14.0781C6.31153 13.9394 6.4421 13.9 6.50029 13.9C7.01209 13.9001 7.30106 14.0881 7.61917 14.3222C7.64228 14.3392 7.66587 14.3568 7.69 14.3748L7.69008 14.3749C7.99839 14.6047 8.39469 14.9001 9.0003 14.9001Z" fill="#D6F5E5"/>
<path d="M1.5 10.5001V16.5001L16 15.0001C16.8976 11.8076 16.8907 10.0565 16 7.00006M1.5 10.5001L16 7.00006M1.5 10.5001L10 3.00006C12.5784 4.01437 13.8872 4.87507 16 7.00006" stroke="#126A51" stroke-width="0.8" stroke-linejoin="round"/>
<path d="M12.5 3.5C12.3333 3 11 1.8 9 1" stroke="#A02525" stroke-width="0.6" stroke-linecap="round" stroke-linejoin="round"/>
<circle cx="11" cy="4" r="1.7" fill="#FF7070" stroke="#D84F4F" stroke-width="0.6"/>
<path d="M11 5C11.5 5 12 4.5 12 4" stroke="#FFDBDB" stroke-width="0.3" stroke-linecap="round" stroke-linejoin="round"/>
</svg>
