<svg width="136" height="64" viewBox="0 0 136 64" fill="none" xmlns="http://www.w3.org/2000/svg">
<path d="M5.26418 47.8267V63.7808H3.17414V47.8267H5.26418Z" fill="#07271F"/>
<path d="M21.194 47.8267V63.7808H19.0931L11.1553 51.4755V63.7808H9.06525V47.8267H11.1553L19.1256 60.1649V47.8267H21.194Z" fill="#07271F"/>
<path d="M29.1643 63.7808H26.9877V62.0605H29.1643C30.2906 62.0605 31.2291 61.8231 31.9799 61.3483C32.7308 60.8661 33.2939 60.1941 33.6693 59.3321C34.0519 58.4628 34.2433 57.4474 34.2433 56.2859V55.3107C34.2433 54.3975 34.135 53.5867 33.9184 52.8781C33.7018 52.1622 33.3841 51.5595 32.9654 51.0701C32.5467 50.5734 32.0341 50.1971 31.4277 49.9415C30.8284 49.6858 30.139 49.558 29.3593 49.558H26.9877V47.8267H29.3593C30.3917 47.8267 31.3338 48.002 32.1857 48.3526C33.0376 48.696 33.7704 49.1964 34.384 49.8538C35.0049 50.504 35.4814 51.2929 35.8135 52.2206C36.1456 53.1411 36.3116 54.1784 36.3116 55.3326V56.2859C36.3116 57.4401 36.1456 58.481 35.8135 59.4088C35.4814 60.3292 35.0013 61.1145 34.3732 61.7647C33.7523 62.4148 33.0015 62.9152 32.1207 63.2658C31.2472 63.6092 30.2617 63.7808 29.1643 63.7808ZM26.9877 47.8267V63.7808H24.8976V47.8267H26.9877Z" fill="#07271F"/>
<path d="M48.4729 47.8267H50.5521V58.6198C50.5521 59.8179 50.2886 60.815 49.7616 61.6113C49.2346 62.4075 48.5343 63.0065 47.6607 63.4083C46.7944 63.8028 45.8522 64 44.8343 64C43.7658 64 42.7984 63.8028 41.932 63.4083C41.0729 63.0065 40.3907 62.4075 39.8853 61.6113C39.3872 60.815 39.1381 59.8179 39.1381 58.6198V47.8267H41.2065V58.6198C41.2065 59.4526 41.3581 60.1393 41.6613 60.6799C41.9645 61.2204 42.3869 61.6222 42.9283 61.8852C43.477 62.1482 44.1123 62.2797 44.8343 62.2797C45.5634 62.2797 46.1988 62.1482 46.7402 61.8852C47.2889 61.6222 47.7148 61.2204 48.0181 60.6799C48.3213 60.1393 48.4729 59.4526 48.4729 58.6198V47.8267Z" fill="#07271F"/>
<path d="M63.3956 62.0605V63.7808H55.9234V62.0934L63.3956 62.0605ZM55.9234 47.8267V63.7808H53.8334V47.8267H55.9234Z" fill="#07271F"/>
<path d="M76.7264 55.8366V61.677C76.5315 61.9692 76.221 62.2979 75.7951 62.6632C75.3691 63.0211 74.7808 63.3352 74.0299 63.6055C73.2863 63.8685 72.3261 64 71.1493 64C70.1892 64 69.3048 63.832 68.4962 63.496C67.6948 63.1526 66.9981 62.6559 66.4061 62.0057C65.8214 61.3483 65.3665 60.552 65.0417 59.617C64.724 58.6746 64.5652 57.6081 64.5652 56.4174V55.1792C64.5652 53.9885 64.7023 52.9256 64.9767 51.9905C65.2582 51.0555 65.6697 50.2629 66.2112 49.6127C66.7527 48.9553 67.4169 48.4585 68.2038 48.1225C68.9907 47.7792 69.8932 47.6075 70.9111 47.6075C72.1168 47.6075 73.1239 47.8194 73.9325 48.243C74.7483 48.6594 75.3836 49.2365 75.8384 49.9743C76.3005 50.7121 76.5965 51.5522 76.7264 52.4946H74.6364C74.5425 51.9175 74.3548 51.3915 74.0732 50.9167C73.7989 50.4419 73.4054 50.062 72.8929 49.7771C72.3803 49.4849 71.7197 49.3388 70.9111 49.3388C70.1819 49.3388 69.5502 49.4739 69.016 49.7442C68.4817 50.0145 68.0414 50.4017 67.6948 50.9057C67.3483 51.4098 67.0884 52.0197 66.9151 52.7356C66.7491 53.4515 66.666 54.2587 66.666 55.1573V56.4174C66.666 57.3378 66.7707 58.1596 66.9801 58.8828C67.1967 59.606 67.5035 60.2233 67.9006 60.7347C68.2976 61.2387 68.7705 61.6222 69.3192 61.8852C69.8751 62.1482 70.4888 62.2797 71.1602 62.2797C71.9038 62.2797 72.5066 62.2176 72.9687 62.0934C73.4307 61.9619 73.7917 61.8085 74.0516 61.6332C74.3115 61.4505 74.51 61.2789 74.6472 61.1182V57.546H70.9977V55.8366H76.7264Z" fill="#07271F"/>
<path d="M90.2088 62.0605V63.7808H82.2818V62.0934L90.2088 62.0605ZM82.2818 47.8267V63.7808H80.1918V47.8267H82.2818ZM89.1042 54.6861V56.4064H82.2818V54.6861H89.1042ZM90.1005 47.8267V49.558H82.2818V47.8267H90.1005Z" fill="#07271F"/>
<path d="M104.926 47.8267V63.7808H102.825L94.8871 51.4755V63.7808H92.797V47.8267H94.8871L102.857 60.1649V47.8267H104.926Z" fill="#07271F"/>
<path d="M118.148 58.7075H120.228C120.119 59.7156 119.834 60.6178 119.372 61.414C118.91 62.2103 118.257 62.8422 117.412 63.3097C116.567 63.7699 115.513 64 114.25 64C113.326 64 112.485 63.8247 111.727 63.474C110.976 63.1234 110.33 62.6267 109.788 61.9838C109.247 61.3337 108.828 60.5557 108.532 59.6499C108.243 58.7367 108.099 57.7213 108.099 56.6037V55.0148C108.099 53.8971 108.243 52.8854 108.532 51.9796C108.828 51.0664 109.25 50.2848 109.799 49.6347C110.355 48.9845 111.023 48.4841 111.802 48.1335C112.582 47.7828 113.459 47.6075 114.434 47.6075C115.625 47.6075 116.632 47.834 117.455 48.2869C118.278 48.7398 118.917 49.368 119.372 50.1716C119.834 50.9678 120.119 51.8919 120.228 52.9438H118.148C118.047 52.1987 117.86 51.5595 117.585 51.0263C117.311 50.4857 116.921 50.0693 116.416 49.7771C115.91 49.4849 115.25 49.3388 114.434 49.3388C113.734 49.3388 113.116 49.4739 112.582 49.7442C112.055 50.0145 111.611 50.398 111.25 50.8948C110.896 51.3915 110.629 51.9869 110.449 52.6809C110.268 53.3748 110.178 54.1455 110.178 54.9929V56.6037C110.178 57.3853 110.257 58.1194 110.416 58.8061C110.582 59.4928 110.831 60.0955 111.163 60.6141C111.496 61.1328 111.918 61.5419 112.43 61.8414C112.943 62.1336 113.549 62.2797 114.25 62.2797C115.138 62.2797 115.845 62.1372 116.372 61.8523C116.899 61.5674 117.296 61.1583 117.564 60.6251C117.838 60.0918 118.033 59.4526 118.148 58.7075Z" fill="#07271F"/>
<path d="M133.093 62.0605V63.7808H125.166V62.0605H133.093ZM125.166 47.8267V63.7808H123.076V47.8267H125.166ZM131.988 54.6861V56.4064H125.166V54.6861H131.988ZM132.984 47.8267V49.558H125.166V47.8267H132.984Z" fill="#07271F"/>
<path d="M6.5953 28.879C8.08085 29.0849 9.41378 29.1879 10.5941 29.1879C13.8297 29.1879 16.6177 28.5495 18.9579 27.2729C21.2982 25.9962 23.0788 24.2048 24.2998 21.8986C25.5208 19.5718 26.1313 16.8538 26.1313 13.7445C26.1313 11.356 25.6429 9.31746 24.6661 7.629C23.6893 5.94053 22.2953 4.66388 20.4842 3.79905C18.673 2.91364 16.5261 2.47093 14.0434 2.47093C12.2933 2.47093 10.472 2.72832 8.57943 3.2431C6.68688 3.73728 5.03853 4.46826 3.63438 5.43604C3.24773 5.70373 2.97301 6.0023 2.81021 6.33176C2.64741 6.64062 2.56601 7.04215 2.56601 7.53633C2.56601 7.96875 2.66776 8.33939 2.87126 8.64825C3.07476 8.93653 3.34948 9.08067 3.69543 9.08067C4.00068 9.08067 4.28558 8.98801 4.55013 8.80269C5.83218 7.95845 7.26685 7.27895 8.85415 6.76417C10.4618 6.24939 12.0796 5.992 13.7076 5.992C16.231 5.992 18.1846 6.66121 19.5684 7.99963C20.9522 9.33805 21.6441 11.2324 21.6441 13.6828C21.6441 17.3274 20.7589 20.241 18.9884 22.4237C17.2383 24.6063 14.5827 25.6977 11.0214 25.6977C10.2481 25.6977 9.55623 25.6668 8.94573 25.605C9.16958 23.0929 9.54605 20.4572 10.0752 17.698C10.6043 14.9182 11.1334 12.7047 11.6625 11.0574C11.7846 10.6868 11.8456 10.3573 11.8456 10.069C11.8456 9.36894 11.2249 9.01889 9.98358 9.01889C9.29168 9.01889 8.73205 9.12185 8.3047 9.32776C7.87735 9.53367 7.59245 9.89401 7.45 10.4088C6.69705 13.1886 6.05603 16.0816 5.52693 19.0879C4.99783 22.0736 4.66206 24.5857 4.51961 26.6243C4.47891 27.3655 4.61118 27.9009 4.91643 28.2304C5.22168 28.5598 5.7813 28.776 6.5953 28.879Z" fill="#178462"/>
<path fill-rule="evenodd" clip-rule="evenodd" d="M40.5513 23.0567C40.4316 22.2134 40.3717 21.3023 40.3717 20.3234C40.3717 17.8113 40.6871 14.9491 41.3179 11.7369C41.9691 8.52471 42.9154 5.7655 44.1568 3.4593C45.4185 1.1531 46.9142 0 48.6439 0C49.6207 0 50.3839 0.4633 50.9333 1.3899C51.5031 2.29591 51.788 3.60344 51.788 5.3125C51.788 7.76284 51.1165 10.6044 49.7734 13.8372C48.4303 17.07 46.6089 20.2719 44.3094 23.4429C44.4518 24.2872 44.6859 24.8946 45.0115 25.2653C45.3371 25.6153 45.7644 25.7903 46.2935 25.7903C47.1279 25.7903 47.8605 25.5535 48.4913 25.0799C48.9384 24.7297 49.4723 24.2089 50.0931 23.5175C50.124 22.6732 50.2329 21.6497 50.4196 20.4469C50.6638 18.985 50.9691 17.626 51.3354 16.3699C51.5185 15.711 51.7627 15.258 52.068 15.0109C52.3732 14.7638 52.8616 14.6403 53.5332 14.6403C54.571 14.6403 55.09 14.9903 55.09 15.6904C55.09 16.2052 54.8966 17.3995 54.51 19.2733C54.0216 21.5383 53.7774 23.0723 53.7774 23.8754C53.7774 24.4931 53.8588 24.9667 54.0216 25.2961C54.1844 25.6256 54.4591 25.7903 54.8458 25.7903C55.2121 25.7903 55.6699 25.5329 56.2194 25.0182C56.5066 24.7491 56.8439 24.3984 57.2312 23.9661C57.2587 22.3881 57.6346 20.8959 58.359 19.4895C59.1119 18.0069 60.1091 16.8229 61.3504 15.9375C62.6121 15.0315 63.9451 14.5785 65.3492 14.5785C65.7969 14.5785 66.092 14.6711 66.2344 14.8565C66.3972 15.0212 66.5295 15.3301 66.6313 15.7831C67.0179 15.7007 67.4656 15.6595 67.9744 15.6595C68.4831 15.6595 68.8392 15.7419 69.0427 15.9066C69.2666 16.0507 69.3785 16.3493 69.3785 16.8023C69.3785 17.0494 69.3683 17.245 69.348 17.3892C69.2666 18.0275 69.0122 19.6439 68.5849 22.2384C68.5035 22.7326 68.4119 23.2782 68.3101 23.8754C68.2287 24.4519 68.1372 25.0696 68.0354 25.7286C69.562 24.5249 71.0306 23.4581 72.4413 22.5281L72.4468 22.0839C72.4468 18.9129 72.7622 15.608 73.393 12.1693C74.0442 8.73062 74.9905 5.84787 76.2318 3.52107C77.4936 1.17369 78.9994 0 80.7496 0C81.6856 0 82.4386 0.411822 83.0084 1.23547C83.5985 2.03852 83.8936 3.08866 83.8936 4.3859C83.8936 6.4656 83.2933 8.62766 82.0926 10.8721C80.892 13.0959 78.9384 15.7007 76.2318 18.6864C76.1708 19.7571 76.1403 20.8588 76.1403 21.9913C76.8118 20.241 77.5546 18.8202 78.3686 17.7289C79.2029 16.617 80.0169 15.8242 80.8106 15.3506C81.6246 14.8771 82.3674 14.6403 83.0389 14.6403C84.3617 14.6403 85.023 15.3095 85.023 16.6479C85.023 17.4509 84.7992 18.9026 84.3515 21.0029C83.9649 22.7943 83.7715 23.9783 83.7715 24.5549C83.7715 25.3785 84.0666 25.7903 84.6567 25.7903C85.0637 25.7903 85.542 25.5432 86.0914 25.049C86.6612 24.5343 87.4142 23.7106 88.3503 22.5781C88.506 22.3943 88.6741 22.2691 88.8547 22.2025C88.8024 21.6134 88.7762 20.987 88.7762 20.3234C88.7762 19.4174 88.8067 18.5011 88.8678 17.5745H87.6773C87.0668 17.5745 86.6496 17.4612 86.4258 17.2347C86.2223 17.0082 86.1205 16.6479 86.1205 16.1537C86.1205 15.0006 86.5784 14.424 87.4941 14.424H89.2341C89.58 12.159 90.1091 10.0896 90.8214 8.21584C91.5336 6.34205 92.3883 4.8492 93.3855 3.73728C94.403 2.62536 95.4917 2.0694 96.6516 2.0694C97.5063 2.0694 98.1779 2.45034 98.6663 3.21221C99.1547 3.97408 99.3989 4.93156 99.3989 6.08466C99.3989 9.27628 98.0761 12.0561 95.4306 14.424H98.8494C99.175 14.424 99.4091 14.4961 99.5515 14.6403C99.694 14.7844 99.7652 15.0521 99.7652 15.4433C99.7652 16.8641 98.6154 17.5745 96.3159 17.5745H92.5918C92.5511 18.604 92.5308 19.4071 92.5308 19.9836C92.5308 22.1251 92.775 23.6283 93.2634 24.4931C93.7721 25.3579 94.5658 25.7903 95.6443 25.7903C96.5194 25.7903 97.2927 25.5226 97.9642 24.9873C98.4813 24.575 99.0709 24.004 99.7328 23.2743C99.885 20.251 100.278 17.1979 100.912 14.1152C101.767 10.0382 102.927 6.67151 104.392 4.01526C105.878 1.33842 107.506 0 109.276 0C110.233 0 110.975 0.432413 111.504 1.29724C112.054 2.16206 112.329 3.32546 112.329 4.78743C112.329 9.62633 109.469 14.8976 103.751 20.6014C103.548 22.6193 103.446 24.3901 103.446 25.9139C103.446 28.0348 103.517 30.2071 103.66 32.4309C103.802 34.6754 104.036 35.7976 104.362 35.7976C104.972 35.7976 105.277 34.7269 105.277 32.5854C105.277 30.9793 105.165 29.4247 104.942 27.9215C104.738 26.4184 104.453 24.8328 104.087 23.165C104.067 22.8973 104.148 22.5575 104.331 22.1457C104.535 21.7339 104.779 21.3735 105.064 21.0647C105.349 20.7558 105.603 20.6014 105.827 20.6014C106.234 20.6014 106.722 20.622 107.292 20.6631C107.475 20.6837 107.689 20.694 107.933 20.694C108.726 20.694 109.606 20.6256 110.574 20.4887C110.574 20.4851 110.575 20.4815 110.575 20.4778C110.779 19.1806 111.115 17.8113 111.583 16.3699C111.786 15.7522 112.071 15.3095 112.437 15.0418C112.804 14.7741 113.384 14.6403 114.177 14.6403C114.625 14.6403 114.93 14.7123 115.093 14.8565C115.276 15.0006 115.368 15.2168 115.368 15.5051C115.368 15.6698 115.256 16.2258 115.032 17.173C114.828 17.9348 114.666 18.6246 114.544 19.2424C114.137 21.4044 113.933 22.8458 113.933 23.5665C113.933 23.9989 113.984 24.3078 114.086 24.4931C114.187 24.6578 114.35 24.7402 114.574 24.7402C114.879 24.7402 115.256 24.4313 115.704 23.8136C116.172 23.1958 116.66 22.259 117.169 21.0029C117.698 19.7468 118.207 18.2025 118.695 16.3699C118.858 15.7522 119.102 15.3095 119.428 15.0418C119.774 14.7741 120.282 14.6403 120.954 14.6403C121.422 14.6403 121.747 14.702 121.931 14.8256C122.114 14.9285 122.205 15.1344 122.205 15.4433C122.205 15.9581 121.951 17.3686 121.442 19.6748C120.872 22.3104 120.588 23.9371 120.588 24.5549C120.588 24.9461 120.669 25.255 120.832 25.4815C120.995 25.6874 121.208 25.7903 121.473 25.7903C121.88 25.7903 122.358 25.5432 122.907 25.049C123.394 24.6093 124.015 23.9441 124.769 23.0536C124.645 22.2116 124.584 21.3015 124.584 20.3234C124.584 17.8113 124.899 14.9491 125.53 11.7369C126.181 8.52471 127.127 5.7655 128.369 3.4593C129.63 1.1531 131.126 0 132.856 0C133.833 0 134.596 0.4633 135.145 1.3899C135.715 2.29591 136 3.60344 136 5.3125C136 7.76284 135.328 10.6044 133.985 13.8372C132.663 17.07 130.851 20.2616 128.552 23.4121C128.694 24.2563 128.949 24.8637 129.315 25.2344C129.681 25.605 130.18 25.7903 130.811 25.7903C131.157 25.7903 131.543 25.6874 131.971 25.4815C132.418 25.2755 132.825 25.0079 133.192 24.6784C133.416 24.4725 133.639 24.3695 133.863 24.3695C134.107 24.3695 134.301 24.5137 134.443 24.802C134.606 25.0696 134.687 25.3991 134.687 25.7903C134.687 26.6552 134.382 27.345 133.772 27.8597C132.713 28.7451 131.513 29.1879 130.17 29.1879C128.236 29.1879 126.822 28.3745 125.927 26.7478C125.827 26.5643 125.733 26.3747 125.644 26.179C124.947 26.9472 124.208 27.6001 123.426 28.1377C122.429 28.8378 121.29 29.1879 120.008 29.1879C119.031 29.1879 118.308 28.8069 117.84 28.0451C117.393 27.2832 117.169 26.2124 117.169 24.8328C116.823 26.233 116.304 27.3141 115.612 28.0759C114.92 28.8172 114.177 29.1879 113.384 29.1879C112.468 29.1879 111.715 28.7657 111.125 27.9215C110.555 27.0567 110.27 25.9859 110.27 24.7093C110.27 24.4707 110.272 24.2352 110.277 24.003C109.843 24.0826 109.346 24.1224 108.788 24.1224C108.299 24.1224 107.597 24.0298 106.681 23.8445C106.946 25.1211 107.16 26.5419 107.322 28.1068C107.506 29.6512 107.597 30.9278 107.597 31.9368C107.597 34.1606 107.241 35.8594 106.529 37.0331C105.817 38.2067 104.881 38.7936 103.721 38.7936C102.255 38.7936 101.207 37.7434 100.576 35.6432C100.024 33.7409 99.721 30.9603 99.6689 27.3013C99.3148 27.6057 98.9501 27.8845 98.5747 28.1377C97.5369 28.8378 96.3464 29.1879 95.0033 29.1879C92.2796 29.1879 90.4494 27.916 89.5127 25.3722C89.4922 25.3989 89.471 25.425 89.4492 25.4506C88.5131 26.5419 87.5464 27.4376 86.5493 28.1377C85.5725 28.8378 84.4532 29.1879 83.1915 29.1879C82.1537 29.1879 81.3702 28.8893 80.8411 28.2921C80.312 27.6744 80.0475 26.789 80.0475 25.6359C80.0475 25.0593 80.1899 24.0298 80.4748 22.5472C80.7394 21.25 80.8717 20.3543 80.8717 19.8601C80.8717 19.5306 80.7597 19.3659 80.5359 19.3659C80.2713 19.3659 79.8948 19.716 79.4064 20.4161C78.918 21.0956 78.4296 22.0016 77.9413 23.1341C77.4529 24.2666 77.056 25.4609 76.7508 26.7169C76.3641 28.3642 75.4077 29.1879 73.8814 29.1879C73.2709 29.1879 72.8639 28.9716 72.6604 28.5392C72.4773 28.0862 72.3857 27.2832 72.3857 26.1301C72.3857 26.0731 72.3858 26.0171 72.3859 25.962C71.0589 26.8706 70.0564 27.5649 69.3785 28.0451L67.4249 29.3732C66.6516 33.6355 65.6341 36.9816 64.3724 39.4113C63.1311 41.8617 61.5438 43.0868 59.6105 43.0868C58.5727 43.0868 57.7281 42.7574 57.0769 42.0985C56.4257 41.4601 56.1001 40.6159 56.1001 39.5658C56.1001 38.1038 56.6699 36.5286 57.8095 34.8401C58.9491 33.1722 61.0859 31.1131 64.2198 28.6628L64.4029 27.4582C64.057 28.0142 63.5991 28.4466 63.0293 28.7554C62.4799 29.0437 61.9304 29.1879 61.381 29.1879C60.1193 29.1879 59.1119 28.7246 58.359 27.798C58.2009 27.6034 58.0594 27.3962 57.9345 27.1762C56.5081 28.5173 55.153 29.1879 53.869 29.1879C52.5462 29.1879 51.5796 28.7143 50.9691 27.7671C50.8196 27.5272 50.6891 27.2675 50.5775 26.988C50.1147 27.4167 49.633 27.8 49.1323 28.1377C48.1148 28.8378 46.9549 29.1879 45.6525 29.1879C43.8617 29.1879 42.5288 28.3642 41.6537 26.7169C41.5628 26.5417 41.4767 26.361 41.3955 26.1748C40.7197 26.8268 39.8739 27.4399 38.8583 28.0142C37.4949 28.7966 36.0297 29.1879 34.4627 29.1879C32.326 29.1879 30.6674 28.601 29.4871 27.4273C28.3068 26.2536 27.7167 24.6475 27.7167 22.609C27.7167 21.1882 28.0118 19.8704 28.6019 18.6555C29.1921 17.4201 30.0061 16.442 31.0439 15.7213C32.1021 15.0006 33.2926 14.6403 34.6153 14.6403C35.7956 14.6403 36.7419 15.0006 37.4542 15.7213C38.1664 16.4214 38.5225 17.3789 38.5225 18.5937C38.5225 20.0145 38.0138 21.2397 36.9963 22.2693C35.9991 23.2782 34.2999 24.0813 31.8986 24.6784C32.4074 25.6256 33.374 26.0992 34.7985 26.0992C35.7142 26.0992 36.7521 25.78 37.912 25.1417C38.9076 24.5859 39.7874 23.8909 40.5513 23.0567ZM32.1733 18.9953C32.7024 18.1099 33.3435 17.6671 34.0964 17.6671C34.4627 17.6671 34.7476 17.7907 34.9511 18.0378C35.175 18.2643 35.2869 18.5732 35.2869 18.9644C35.2869 19.7263 34.9409 20.3955 34.249 20.972C33.5571 21.5486 32.6109 21.981 31.4102 22.2693V22.2075C31.4102 20.9514 31.6646 19.8807 32.1733 18.9953ZM46.3851 5.62137C46.9752 3.91231 47.5043 3.05778 47.9724 3.05778C48.5422 3.05778 48.8271 3.84024 48.8271 5.40516C48.8271 7.40249 48.3997 9.61603 47.545 12.0458C46.6903 14.4549 45.5406 16.8641 44.0957 19.2733C44.1364 16.9465 44.3806 14.5167 44.8283 11.984C45.276 9.45131 45.7949 7.33042 46.3851 5.62137ZM63.823 25.2035C63.3956 25.78 62.9479 26.0683 62.4799 26.0683C62.0322 26.0683 61.676 25.9139 61.4115 25.605C61.1673 25.2961 61.0452 24.8225 61.0452 24.1842C61.0452 23.0311 61.2589 21.9398 61.6862 20.9102C62.1136 19.8807 62.6834 19.057 63.3956 18.4393C64.1079 17.801 64.8812 17.4715 65.7155 17.4509L64.7387 22.7326C64.5556 23.8033 64.2503 24.6269 63.823 25.2035ZM61.6557 38.2376C61.0248 39.4731 60.455 40.0908 59.9463 40.0908C59.641 40.0908 59.4172 39.9776 59.2747 39.7511C59.1526 39.5246 59.0916 39.2363 59.0916 38.8863C59.0916 38.0626 59.4375 37.1051 60.1294 36.0138C60.8213 34.9225 61.9508 33.6973 63.5177 32.3383C62.9276 35.0357 62.3069 37.0022 61.6557 38.2376ZM78.8875 4.66388C79.3352 3.59314 79.7422 3.05778 80.1085 3.05778C80.3731 3.05778 80.5766 3.2328 80.719 3.58285C80.8615 3.9329 80.9327 4.43738 80.9327 5.09629C80.9327 6.53767 80.5155 8.14377 79.6812 9.9146C78.8672 11.6854 77.8293 13.3224 76.5676 14.8256C76.8322 12.7047 77.168 10.7485 77.575 8.95712C78.0023 7.14511 78.4398 5.71402 78.8875 4.66388ZM94.7896 6.20821C95.1763 5.42575 95.5222 5.03452 95.8275 5.03452C96.2752 5.03452 96.499 5.64196 96.499 6.85683C96.499 7.92757 96.1938 9.12185 95.5833 10.4397C94.9931 11.7369 94.0977 12.9106 92.8971 13.9608C93.1209 12.2929 93.3956 10.7794 93.7212 9.42042C94.0672 8.04082 94.4233 6.97008 94.7896 6.20821ZM107.261 4.94186C107.811 3.6858 108.269 3.05778 108.635 3.05778C109.144 3.05778 109.398 3.6858 109.398 4.94186C109.378 6.71269 108.93 8.61737 108.055 10.6559C107.18 12.6738 105.929 14.6197 104.301 16.4935C104.687 14.1873 105.145 12.0046 105.674 9.94549C106.203 7.86579 106.732 6.19791 107.261 4.94186ZM130.597 5.62137C131.187 3.91231 131.716 3.05778 132.184 3.05778C132.754 3.05778 133.039 3.84024 133.039 5.40516C133.039 7.40249 132.612 9.61603 131.757 12.0458C130.902 14.4549 129.753 16.8641 128.308 19.2733C128.348 16.9465 128.593 14.5167 129.04 11.984C129.488 9.45131 130.007 7.33042 130.597 5.62137Z" fill="#178462"/>
<path d="M52.1901 12.0149C52.6174 12.4061 53.2585 12.6017 54.1132 12.6017C54.9882 12.6017 55.6903 12.3649 56.2194 11.8913C56.7485 11.3972 57.013 10.7382 57.013 9.9146C57.013 9.2351 56.779 8.71003 56.311 8.33939C55.8429 7.96875 55.2324 7.78343 54.4795 7.78343C53.6451 7.78343 52.943 8.03052 52.3732 8.52471C51.8238 8.9983 51.5491 9.59544 51.5491 10.3161C51.5491 11.0368 51.7627 11.6031 52.1901 12.0149Z" fill="#178462"/>
<path d="M52.2263 31.2051V31.2105C52.8948 31.2715 53.4187 31.84 53.4187 32.5323C53.4187 33.2246 52.8948 33.7931 52.2263 33.854V33.8595H1.19238V33.854C0.523873 33.7931 0 33.2246 0 32.5323C0 31.84 0.523873 31.2715 1.19238 31.2105V31.2051H52.2263Z" fill="#178462"/>
<path d="M93.4828 31.2051H72.9738V31.2105C72.9345 31.207 72.8947 31.2051 72.8545 31.2051C72.1302 31.2051 71.5429 31.7993 71.5429 32.5323C71.5429 33.2653 72.1302 33.8595 72.8545 33.8595C72.8947 33.8595 72.9345 33.8576 72.9738 33.854V33.8595H93.4828V33.854C94.1513 33.7931 94.6751 33.2246 94.6751 32.5323C94.6751 31.84 94.1513 31.2715 93.4828 31.2105V31.2051Z" fill="#178462"/>
<path d="M134.262 31.2105V31.2051H113.515V31.2105C113.476 31.207 113.436 31.2051 113.396 31.2051C112.671 31.2051 112.084 31.7993 112.084 32.5323C112.084 33.2653 112.671 33.8595 113.396 33.8595C113.436 33.8595 113.476 33.8576 113.515 33.854V33.8595H134.262V33.854C134.931 33.7931 135.455 33.2246 135.455 32.5323C135.455 31.84 134.931 31.2715 134.262 31.2105Z" fill="#178462"/>
</svg>
