<svg xmlns="http://www.w3.org/2000/svg" width="136" height="64" fill="none"><path fill="#07271F" d="M5.264 47.827V63.78h-2.09V47.827h2.09ZM21.194 47.827V63.78h-2.1l-7.939-12.306v12.306h-2.09V47.827h2.09l7.97 12.338V47.827h2.069ZM29.164 63.78h-2.176v-1.72h2.176c1.127 0 2.065-.237 2.816-.712.75-.482 1.314-1.154 1.69-2.016.382-.87.573-1.885.573-3.046v-.975c0-.913-.108-1.724-.325-2.433-.216-.716-.534-1.319-.953-1.808a4.028 4.028 0 0 0-1.537-1.129c-.6-.255-1.289-.383-2.069-.383h-2.371v-1.731h2.371c1.033 0 1.975.175 2.827.526a6.073 6.073 0 0 1 2.198 1.5c.62.651 1.097 1.44 1.43 2.368.332.92.498 1.957.498 3.112v.953c0 1.154-.166 2.195-.498 3.123-.333.92-.813 1.706-1.44 2.356a6.282 6.282 0 0 1-2.253 1.5c-.874.344-1.86.516-2.957.516Zm-2.176-15.953V63.78h-2.09V47.827h2.09ZM48.473 47.827h2.08V58.62c0 1.198-.264 2.195-.791 2.991a4.951 4.951 0 0 1-2.101 1.797 6.739 6.739 0 0 1-2.827.592c-1.068 0-2.036-.197-2.902-.592-.86-.401-1.541-1-2.047-1.797-.498-.796-.747-1.793-.747-2.991V47.827h2.069V58.62c0 .833.151 1.52.454 2.06.303.54.726.942 1.267 1.205.549.263 1.184.395 1.906.395.73 0 1.365-.132 1.906-.395a2.847 2.847 0 0 0 1.278-1.205c.303-.54.455-1.227.455-2.06V47.827ZM63.396 62.06v1.72h-7.473v-1.687l7.473-.033Zm-7.473-14.233V63.78h-2.09V47.827h2.09ZM76.726 55.837v5.84c-.195.292-.505.62-.93.986-.427.358-1.015.672-1.766.943-.744.262-1.704.394-2.88.394-.96 0-1.845-.168-2.654-.504a5.984 5.984 0 0 1-2.09-1.49c-.585-.658-1.04-1.454-1.364-2.389-.318-.942-.477-2.009-.477-3.2V55.18c0-1.19.137-2.253.412-3.189.281-.934.693-1.727 1.234-2.377a5.18 5.18 0 0 1 1.993-1.49c.787-.344 1.69-.515 2.707-.515 1.206 0 2.213.211 3.022.635.815.416 1.45.993 1.905 1.731.463.738.759 1.578.888 2.52h-2.09a4.47 4.47 0 0 0-.563-1.577 3.026 3.026 0 0 0-1.18-1.14c-.513-.292-1.173-.438-1.982-.438-.73 0-1.36.135-1.895.405a3.5 3.5 0 0 0-1.321 1.162c-.347.504-.607 1.114-.78 1.83-.166.716-.249 1.523-.249 2.421v1.26c0 .92.105 1.743.314 2.466.217.723.523 1.34.92 1.852.398.504.87.887 1.42 1.15a4.25 4.25 0 0 0 1.84.395c.744 0 1.347-.062 1.809-.187.462-.131.823-.285 1.083-.46.26-.183.458-.354.595-.515v-3.572h-3.65v-1.71h5.73ZM90.209 62.06v1.72h-7.927v-1.687l7.927-.033Zm-7.927-14.233V63.78h-2.09V47.827h2.09Zm6.822 6.86v1.72h-6.822v-1.72h6.822Zm.996-6.86v1.731h-7.818v-1.731H90.1ZM104.926 47.827V63.78h-2.101l-7.938-12.306v12.306h-2.09V47.827h2.09l7.97 12.338V47.827h2.069ZM118.148 58.708h2.08c-.109 1.008-.394 1.91-.856 2.706a5.025 5.025 0 0 1-1.96 1.896c-.845.46-1.899.69-3.162.69-.924 0-1.765-.175-2.523-.526a5.618 5.618 0 0 1-1.939-1.49c-.541-.65-.96-1.428-1.256-2.334-.289-.913-.433-1.929-.433-3.046v-1.59c0-1.117.144-2.129.433-3.034.296-.914.718-1.695 1.267-2.345a5.662 5.662 0 0 1 2.003-1.502c.78-.35 1.657-.526 2.632-.526 1.191 0 2.198.227 3.021.68a4.837 4.837 0 0 1 1.917 1.885c.462.796.747 1.72.856 2.772h-2.08c-.101-.745-.288-1.385-.563-1.918a2.946 2.946 0 0 0-1.169-1.249c-.506-.292-1.166-.438-1.982-.438-.7 0-1.318.135-1.852.405-.527.27-.971.654-1.332 1.15-.354.498-.621 1.093-.801 1.787a9.16 9.16 0 0 0-.271 2.312v1.61c0 .782.079 1.516.238 2.203.166.687.415 1.29.747 1.808a3.73 3.73 0 0 0 1.267 1.227c.513.293 1.119.439 1.82.439.888 0 1.595-.143 2.122-.428a2.787 2.787 0 0 0 1.192-1.227c.274-.533.469-1.172.584-1.917ZM133.093 62.06v1.72h-7.927v-1.72h7.927Zm-7.927-14.233V63.78h-2.09V47.827h2.09Zm6.822 6.86v1.72h-6.822v-1.72h6.822Zm.996-6.86v1.731h-7.818v-1.731h7.818Z"/><path fill="#178462" d="M6.595 28.879c1.486.206 2.819.309 4 .309 3.235 0 6.023-.639 8.363-1.915 2.34-1.277 4.12-3.068 5.342-5.374 1.22-2.327 1.831-5.045 1.831-8.155 0-2.388-.488-4.427-1.465-6.115-.977-1.688-2.37-2.965-4.182-3.83-1.811-.885-3.958-1.328-6.44-1.328-1.75 0-3.572.257-5.465.772-1.892.494-3.54 1.225-4.945 2.193-.386.268-.661.566-.824.896-.163.309-.244.71-.244 1.204 0 .433.102.803.305 1.112a.958.958 0 0 0 .824.433c.306 0 .59-.093.855-.278 1.282-.845 2.717-1.524 4.304-2.039a15.831 15.831 0 0 1 4.854-.772c2.523 0 4.477.67 5.86 2.008 1.384 1.338 2.076 3.232 2.076 5.683 0 3.644-.885 6.558-2.656 8.74-1.75 2.183-4.405 3.275-7.967 3.275-.773 0-1.465-.031-2.075-.093.224-2.512.6-5.148 1.13-7.907.528-2.78 1.057-4.993 1.586-6.64.123-.371.184-.7.184-.989 0-.7-.621-1.05-1.862-1.05-.692 0-1.252.103-1.68.309-.427.206-.712.566-.854 1.08a98.485 98.485 0 0 0-1.923 8.68c-.53 2.986-.865 5.498-1.007 7.536-.041.742.091 1.277.396 1.606.306.33.865.546 1.68.649Z"/><path fill="#178462" fill-rule="evenodd" d="M40.551 23.057a19.49 19.49 0 0 1-.18-2.734c0-2.512.316-5.374.947-8.586.651-3.212 1.597-5.971 2.839-8.278C45.419 1.153 46.914 0 48.644 0c.977 0 1.74.463 2.29 1.39.57.906.854 2.213.854 3.923 0 2.45-.671 5.291-2.015 8.524-1.343 3.233-3.164 6.435-5.464 9.606.143.844.377 1.452.703 1.822.325.35.752.525 1.282.525.834 0 1.567-.236 2.197-.71.447-.35.981-.871 1.602-1.563.031-.844.14-1.867.327-3.07.244-1.462.55-2.821.915-4.077.184-.659.428-1.112.733-1.36.305-.246.794-.37 1.465-.37 1.038 0 1.557.35 1.557 1.05 0 .515-.193 1.71-.58 3.583-.488 2.265-.733 3.8-.733 4.602 0 .618.082 1.092.245 1.421.162.33.437.494.824.494.366 0 .824-.257 1.373-.772.288-.269.625-.62 1.012-1.052.028-1.578.404-3.07 1.128-4.477.753-1.482 1.75-2.666 2.991-3.552 1.262-.905 2.595-1.358 4-1.358.447 0 .742.092.884.277.163.165.296.474.397.927a6.494 6.494 0 0 1 1.343-.123c.51 0 .865.082 1.069.247.224.144.335.442.335.895 0 .247-.01.443-.03.587-.081.639-.336 2.255-.763 4.85-.081.494-.173 1.04-.275 1.636-.081.577-.173 1.195-.275 1.854a64.42 64.42 0 0 1 4.406-3.2l.006-.445c0-3.171.315-6.476.946-9.915.651-3.438 1.597-6.321 2.839-8.648C77.494 1.174 78.999 0 80.75 0c.936 0 1.689.412 2.258 1.235.59.804.886 1.854.886 3.15 0 2.08-.6 4.243-1.801 6.487-1.201 2.224-3.155 4.829-5.861 7.814a58.124 58.124 0 0 0-.092 3.305c.672-1.75 1.415-3.17 2.229-4.262.834-1.112 1.648-1.905 2.442-2.378.814-.474 1.556-.71 2.228-.71 1.323 0 1.984.668 1.984 2.007 0 .803-.224 2.255-.671 4.355-.387 1.791-.58 2.975-.58 3.552 0 .823.295 1.235.885 1.235.407 0 .885-.247 1.434-.741.57-.515 1.323-1.338 2.26-2.47.155-.185.323-.31.504-.377a21.29 21.29 0 0 1-.079-1.879c0-.906.03-1.822.092-2.748h-1.19c-.611 0-1.028-.114-1.252-.34-.204-.227-.305-.587-.305-1.081 0-1.153.457-1.73 1.373-1.73h1.74c.346-2.265.875-4.334 1.587-6.208.713-1.874 1.567-3.367 2.564-4.479 1.018-1.112 2.107-1.668 3.267-1.668.854 0 1.526.381 2.014 1.143.489.762.733 1.72.733 2.873 0 3.191-1.323 5.971-3.968 8.339h3.418c.326 0 .56.072.703.216.142.144.213.412.213.803 0 1.421-1.15 2.132-3.45 2.132h-3.723a64.933 64.933 0 0 0-.061 2.409c0 2.141.244 3.644.732 4.51.51.864 1.303 1.296 2.381 1.296.875 0 1.649-.267 2.32-.803.517-.412 1.107-.983 1.769-1.713a60.53 60.53 0 0 1 1.179-9.159c.855-4.077 2.015-7.443 3.48-10.1C105.878 1.338 107.506 0 109.276 0c.957 0 1.699.432 2.228 1.297.55.865.825 2.028.825 3.49 0 4.84-2.86 10.11-8.578 15.814-.203 2.018-.305 3.79-.305 5.313 0 2.12.071 4.293.214 6.517.142 2.244.376 3.367.702 3.367.61 0 .915-1.071.915-3.213 0-1.606-.112-3.16-.335-4.663a59.717 59.717 0 0 0-.855-4.757c-.02-.268.061-.607.244-1.02.204-.411.448-.771.733-1.08.285-.31.539-.464.763-.464.407 0 .895.021 1.465.062.183.02.397.031.641.031.793 0 1.673-.068 2.641-.205l.001-.011c.204-1.297.54-2.667 1.008-4.108.203-.618.488-1.06.854-1.328.367-.268.947-.402 1.74-.402.448 0 .753.072.916.216.183.145.275.36.275.65 0 .164-.112.72-.336 1.667a32.133 32.133 0 0 0-.488 2.07c-.407 2.161-.611 3.603-.611 4.324 0 .432.051.74.153.926.101.165.264.247.488.247.305 0 .682-.309 1.13-.926.468-.618.956-1.555 1.465-2.811.529-1.256 1.038-2.8 1.526-4.633.163-.618.407-1.06.733-1.328.346-.268.854-.402 1.526-.402.468 0 .793.062.977.186.183.102.274.308.274.617 0 .515-.254 1.926-.763 4.232-.57 2.635-.854 4.262-.854 4.88 0 .391.081.7.244.927a.778.778 0 0 0 .641.308c.407 0 .885-.247 1.434-.741.487-.44 1.108-1.105 1.862-1.995a18.781 18.781 0 0 1-.185-2.73c0-2.513.315-5.375.946-8.587.651-3.212 1.597-5.971 2.839-8.278C129.63 1.153 131.126 0 132.856 0c.977 0 1.74.463 2.289 1.39.57.906.855 2.213.855 3.923 0 2.45-.672 5.291-2.015 8.524-1.322 3.233-3.134 6.425-5.433 9.575.142.844.397 1.452.763 1.822.366.371.865.556 1.496.556.346 0 .732-.103 1.16-.308a4.866 4.866 0 0 0 1.221-.804c.224-.206.447-.309.671-.309.244 0 .438.145.58.433.163.268.244.597.244.988 0 .865-.305 1.555-.915 2.07-1.059.885-2.259 1.328-3.602 1.328-1.934 0-3.348-.813-4.243-2.44a8.806 8.806 0 0 1-.283-.569 12.776 12.776 0 0 1-2.218 1.959c-.997.7-2.136 1.05-3.418 1.05-.977 0-1.7-.381-2.168-1.143-.447-.762-.671-1.833-.671-3.212-.346 1.4-.865 2.481-1.557 3.243-.692.741-1.435 1.112-2.228 1.112-.916 0-1.669-.422-2.259-1.266-.57-.865-.855-1.936-.855-3.213 0-.238.002-.474.007-.706-.434.08-.931.12-1.489.12-.489 0-1.191-.093-2.107-.279.265 1.277.479 2.698.641 4.263.184 1.544.275 2.82.275 3.83 0 2.224-.356 3.922-1.068 5.096-.712 1.174-1.648 1.76-2.808 1.76-1.466 0-2.514-1.05-3.145-3.15-.552-1.902-.855-4.683-.907-8.342-.354.305-.719.584-1.094.837-1.038.7-2.229 1.05-3.572 1.05-2.723 0-4.554-1.272-5.49-3.816-.02.027-.042.053-.064.079-.936 1.09-1.903 1.987-2.9 2.687-.977.7-2.096 1.05-3.358 1.05-1.037 0-1.82-.299-2.35-.896-.529-.618-.793-1.503-.793-2.656 0-.577.142-1.606.427-3.089.264-1.297.397-2.193.397-2.687 0-.33-.112-.494-.336-.494-.265 0-.641.35-1.13 1.05-.488.68-.976 1.586-1.465 2.718a22.364 22.364 0 0 0-1.19 3.583c-.387 1.647-1.343 2.47-2.87 2.47-.61 0-1.017-.215-1.22-.648-.184-.453-.275-1.256-.275-2.409v-.168c-1.327.909-2.33 1.603-3.007 2.083l-1.954 1.328c-.773 4.262-1.79 7.609-3.053 10.038-1.24 2.45-2.828 3.676-4.761 3.676-1.038 0-1.883-.33-2.534-.989-.651-.638-.977-1.482-.977-2.532 0-1.462.57-3.037 1.71-4.726 1.14-1.668 3.276-3.727 6.41-6.177l.183-1.205a3.63 3.63 0 0 1-1.374 1.297c-.55.289-1.099.433-1.648.433-1.262 0-2.27-.463-3.022-1.39a4.534 4.534 0 0 1-.425-.622c-1.426 1.341-2.781 2.012-4.065 2.012-1.323 0-2.29-.474-2.9-1.42-.15-.24-.28-.5-.392-.78-.462.429-.944.812-1.445 1.15-1.017.7-2.177 1.05-3.48 1.05-1.79 0-3.123-.824-3.998-2.471a8.913 8.913 0 0 1-.259-.542c-.675.652-1.521 1.265-2.537 1.84a8.686 8.686 0 0 1-4.395 1.173c-2.137 0-3.796-.587-4.976-1.76-1.18-1.174-1.77-2.78-1.77-4.819 0-1.42.295-2.739.885-3.954.59-1.235 1.404-2.213 2.442-2.934 1.058-.72 2.249-1.08 3.571-1.08 1.18 0 2.127.36 2.84 1.08.711.7 1.068 1.658 1.068 2.873 0 1.42-.51 2.646-1.527 3.675C36 23.28 34.3 24.081 31.9 24.68c.508.947 1.475 1.42 2.9 1.42.915 0 1.953-.319 3.113-.957a10.483 10.483 0 0 0 2.64-2.085Zm-8.378-4.062c.53-.885 1.17-1.328 1.923-1.328.367 0 .652.124.855.37.224.227.336.536.336.927 0 .762-.346 1.431-1.038 2.008-.692.577-1.638 1.009-2.839 1.297v-.061c0-1.257.255-2.327.763-3.213ZM46.385 5.621c.59-1.709 1.12-2.563 1.587-2.563.57 0 .855.782.855 2.347 0 1.997-.427 4.211-1.282 6.64-.855 2.41-2.004 4.82-3.45 7.228.041-2.326.286-4.756.733-7.289.448-2.533.967-4.654 1.557-6.363Zm17.438 19.582c-.427.577-.875.865-1.343.865-.448 0-.804-.154-1.069-.463-.244-.309-.366-.782-.366-1.42 0-1.154.214-2.245.641-3.275.428-1.03.997-1.853 1.71-2.47.712-.639 1.485-.969 2.32-.99l-.977 5.283c-.183 1.07-.489 1.894-.916 2.47Zm-2.167 13.035c-.631 1.235-1.201 1.853-1.71 1.853-.305 0-.529-.113-.671-.34-.122-.226-.183-.515-.183-.865 0-.823.346-1.78 1.037-2.872.692-1.092 1.822-2.317 3.389-3.676-.59 2.698-1.211 4.664-1.862 5.9ZM78.888 4.664c.447-1.07.854-1.606 1.22-1.606.265 0 .469.175.611.525.143.35.214.854.214 1.513 0 1.442-.418 3.048-1.252 4.819a21.714 21.714 0 0 1-3.113 4.91c.264-2.12.6-4.076 1.007-5.868.427-1.812.865-3.243 1.313-4.293ZM94.79 6.208c.386-.782.732-1.173 1.037-1.173.448 0 .672.607.672 1.822 0 1.07-.305 2.265-.916 3.583-.59 1.297-1.485 2.47-2.686 3.52.224-1.667.499-3.18.824-4.54.346-1.38.702-2.45 1.069-3.212Zm12.471-1.266c.55-1.256 1.008-1.884 1.374-1.884.509 0 .763.628.763 1.884-.02 1.77-.468 3.675-1.343 5.714-.875 2.018-2.126 3.964-3.754 5.838a78.247 78.247 0 0 1 1.373-6.549c.529-2.08 1.058-3.747 1.587-5.003Zm23.336.68c.59-1.71 1.119-2.564 1.587-2.564.57 0 .855.782.855 2.347 0 1.997-.427 4.211-1.282 6.64-.855 2.41-2.004 4.82-3.449 7.228.04-2.326.285-4.756.732-7.289.448-2.533.967-4.654 1.557-6.363Z" clip-rule="evenodd"/><path fill="#178462" d="M52.19 12.015c.427.391 1.069.587 1.923.587.875 0 1.577-.237 2.106-.71.53-.495.794-1.154.794-1.977 0-.68-.234-1.205-.702-1.576-.468-.37-1.079-.556-1.831-.556-.835 0-1.537.248-2.107.742a2.265 2.265 0 0 0-.824 1.791c0 .72.214 1.287.641 1.699ZM52.226 31.205v.006c.669.06 1.193.629 1.193 1.321 0 .693-.524 1.261-1.193 1.322v.005H1.192v-.005A1.321 1.321 0 0 1 0 32.532c0-.692.524-1.26 1.192-1.321v-.006h51.034ZM93.483 31.205h-20.51v.006a1.32 1.32 0 0 0-1.43 1.322 1.32 1.32 0 0 0 1.43 1.321v.005h20.51v-.005a1.321 1.321 0 0 0 1.192-1.322c0-.692-.524-1.26-1.192-1.321v-.006ZM134.262 31.21v-.005h-20.747v.006a1.32 1.32 0 0 0-1.431 1.322 1.32 1.32 0 0 0 1.431 1.321v.005h20.747v-.005a1.321 1.321 0 0 0 1.193-1.322c0-.692-.524-1.26-1.193-1.321Z"/></svg>